999
DXF file: heizung.dxf
999
Pro/ENGINEER 2016380 by Parametric Technology Corporation
  0
SECTION
  2
HEADER
  9
$ACADVER
  1
AC1027
  9
$DWGCODEPAGE
  3
ANSI_1252
  9
$EXTMAX
 10
420.0
 20
297.0
 30
0.0
  9
$EXTMIN
 10
0.0
 20
-0.0
 30
0.0
  9
$LIMMIN
 10
0.0
 20
-0.0
  9
$LIMMAX
 10
420.0
 20
297.0
  9
$VIEWCTR
 10
210.0
 20
148.5
  9
$VIEWSIZE
 40
297.0
  9
$CLAYER
  8
0
  9
$LTSCALE
 40
23.1
  9
$CELTYPE
  6
BYLAYER
  9
$DIMSCALE
 40
1.0
  9
$DIMASZ
 40
3.5
  9
$DIMEXO
 40
0.0
  9
$DIMDLI
 40
15.96
  9
$DIMEXE
 40
1.5
  9
$DIMCEN
 40
3.78
  9
$DIMLFAC
 40
1.0
  9
$DIMBLK
  1
_FILLED
  9
$DIMALT
 70
0
  9
$DIMALTF
 40
25.4
  9
$DIMTXT
 40
3.0
  9
$DIMTOL
 70
1
  9
$DIMLIM
 70
0
  9
$DIMTFAC
 40
1.0
  9
$DIMTP
 40
0.005
  9
$DIMTM
 40
0.005
  9
$DIMGAP
 40
0.625
  9
$DIMDSEP
 70
46
  9
$AUNITS
 70
0
  9
$PDMODE
 70
3
  9
$PDSIZE
 40
0.1
  9
$HANDSEED
  5
2F4
  9
$TILEMODE
 70
1
  9
$MEASUREMENT
 70
1
  9
$INSUNITS
 70
4
  0
ENDSEC
  0
SECTION
  2
CLASSES
  0
CLASS
  1
ACDBDICTIONARYWDFLT
  2
AcDbDictionaryWithDefault
  3
AutoCAD 2000
 90
0
 91
1
280
0
281
0
  0
CLASS
  1
ACDBPLACEHOLDER
  2
AcDbPlaceHolder
  3
AutoCAD 2000
 90
0
 91
1
280
0
281
0
  0
CLASS
  1
LAYOUT
  2
AcDbLayout
  3
AutoCAD 2000
 90
0
 91
0
280
0
281
0
  0
ENDSEC
  0
SECTION
  2
TABLES
  0
TABLE
  2
VPORT
  5
8
100
AcDbSymbolTable
 70
2
  0
VPORT
  5
1F4
100
AcDbSymbolTableRecord
100
AcDbViewportTableRecord
  2
*ACTIVE
 70
0
 10
0.0
 20
0.0
 11
1.0
 21
1.0
 12
210.0
 22
148.5
 13
0.0
 23
0.0
 14
1.0
 24
1.0
 15
0.0
 25
0.0
 16
0.0
 26
0.0
 36
1.0
 17
0.0
 27
0.0
 37
0.0
 40
297.0
 41
1.4141414141
 42
50.0
 43
0.0
 44
0.0
 50
0.0
 51
0.0
 71
0
 72
100
 73
1
 74
1
 75
0
 76
0
 77
0
 78
0
  0
ENDTAB
  0
TABLE
  2
LTYPE
  5
5
100
AcDbSymbolTable
 70
6
  0
LTYPE
  5
14
100
AcDbSymbolTableRecord
100
AcDbLinetypeTableRecord
  2
BYBLOCK
 70
0
  3

 72
65
 73
0
 40
0.0
  0
LTYPE
  5
15
100
AcDbSymbolTableRecord
100
AcDbLinetypeTableRecord
  2
BYLAYER
 70
0
  3

 72
65
 73
0
 40
0.0
  0
LTYPE
  5
16
100
AcDbSymbolTableRecord
100
AcDbLinetypeTableRecord
  2
CONTINUOUS
 70
64
  3
Solid line
 72
65
 73
0
 40
0.0
  0
LTYPE
  5
1F5
100
AcDbSymbolTableRecord
100
AcDbLinetypeTableRecord
  2
CENTER
 70
64
  3
____ _ ____ _ ____ _ ____ _ ____ _ ____ _ ____
 72
65
 73
4
 40
0.6
 49
0.375
 74
0
 49
-0.075
 74
0
 49
0.075
 74
0
 49
-0.075
 74
0
  0
LTYPE
  5
1F6
100
AcDbSymbolTableRecord
100
AcDbLinetypeTableRecord
  2
HIDDEN
 70
64
  3
- - - - - - - - - - - - - - - - - - - -
 72
65
 73
2
 40
0.2
 49
0.1
 74
0
 49
-0.1
 74
0
  0
LTYPE
  5
1F7
100
AcDbSymbolTableRecord
100
AcDbLinetypeTableRecord
  2
PHANTOM
 70
64
  3
_____ _ _ _____ _ _ _____ _ _ _____
 72
65
 73
6
 40
0.8
 49
0.45
 74
0
 49
-0.05
 74
0
 49
0.1
 74
0
 49
-0.05
 74
0
 49
0.1
 74
0
 49
-0.05
 74
0
  0
LTYPE
  5
1F8
100
AcDbSymbolTableRecord
100
AcDbLinetypeTableRecord
  2
DOT
 70
64
  3
. . . . . . . . . . . . . . . . . . . .
 72
65
 73
2
 40
0.2
 49
0.1
 74
0
 49
-0.1
 74
0
  0
LTYPE
  5
1F9
100
AcDbSymbolTableRecord
100
AcDbLinetypeTableRecord
  2
DASHED
 70
64
  3
- - - - - - - - - - - - - - - - - - - -
 72
65
 73
2
 40
0.2
 49
0.1
 74
0
 49
-0.1
 74
0
  0
ENDTAB
  0
TABLE
  2
LAYER
  5
2
100
AcDbSymbolTable
 70
36
  0
LAYER
  5
10
100
AcDbSymbolTableRecord
100
AcDbLayerTableRecord
  2
0
 70
0
 62
7
  6
CONTINUOUS
370
-3
390
F
  0
LAYER
  5
1FA
100
AcDbSymbolTableRecord
100
AcDbLayerTableRecord
  2
DEFAULT_1
 70
0
 62
7
  6
CENTER
370
-3
390
F
  0
LAYER
  5
1FB
100
AcDbSymbolTableRecord
100
AcDbLayerTableRecord
  2
DEFAULT_2
 70
0
 62
8
  6
HIDDEN
370
-3
390
F
  0
LAYER
  5
1FC
100
AcDbSymbolTableRecord
100
AcDbLayerTableRecord
  2
DEFAULT_3
 70
0
 62
7
  6
PHANTOM
370
-3
390
F
  0
LAYER
  5
1FD
100
AcDbSymbolTableRecord
100
AcDbLayerTableRecord
  2
00_P_CSYS
 70
0
 62
7
  6
CONTINUOUS
370
-3
390
F
  0
LAYER
  5
1FE
100
AcDbSymbolTableRecord
100
AcDbLayerTableRecord
  2
00_P_PLANES
 70
0
 62
7
  6
CONTINUOUS
370
-3
390
F
  0
LAYER
  5
1FF
100
AcDbSymbolTableRecord
100
AcDbLayerTableRecord
  2
01_PLANES
 70
0
 62
7
  6
CONTINUOUS
370
-3
390
F
  0
LAYER
  5
200
100
AcDbSymbolTableRecord
100
AcDbLayerTableRecord
  2
03_AXES
 70
0
 62
7
  6
CONTINUOUS
370
-3
390
F
  0
LAYER
  5
201
100
AcDbSymbolTableRecord
100
AcDbLayerTableRecord
  2
05_CURVES
 70
0
 62
7
  6
CONTINUOUS
370
-3
390
F
  0
ENDTAB
  0
TABLE
  2
STYLE
  5
3
100
AcDbSymbolTable
 70
1
  0
STYLE
  5
11
100
AcDbSymbolTableRecord
100
AcDbTextStyleTableRecord
  2
STANDARD
 70
0
 40
0.0
 41
0.7
 50
0.0
 71
0
 42
0.2
  3
txt
  4

  0
STYLE
  5
202
100
AcDbSymbolTableRecord
100
AcDbTextStyleTableRecord
  2
TEXTSTYLE_1
 70
0
 40
0.0
 41
0.8
 50
0.0
 71
0
 42
0.2
  3
gdt
  4

  0
ENDTAB
  0
TABLE
  2
VIEW
  5
6
100
AcDbSymbolTable
 70
0
  0
ENDTAB
  0
TABLE
  2
UCS
  5
7
100
AcDbSymbolTable
 70
0
  0
ENDTAB
  0
TABLE
  2
APPID
  5
9
100
AcDbSymbolTable
 70
1
  0
APPID
  5
203
100
AcDbSymbolTableRecord
100
AcDbRegAppTableRecord
  2
ACAD
 70
0
  0
ENDTAB
  0
TABLE
  2
BLOCK_RECORD
  5
1
100
AcDbSymbolTable
 70
0
  0
BLOCK_RECORD
  5
204
100
AcDbSymbolTableRecord
100
AcDbBlockTableRecord
  2
*Model_Space
  0
BLOCK_RECORD
  5
205
100
AcDbSymbolTableRecord
100
AcDbBlockTableRecord
  2
*Paper_Space
  0
ENDTAB
  0
TABLE
  2
DIMSTYLE
  5
A
100
AcDbSymbolTable
 70
1
100
AcDbDimStyleTable
 71
0
  0
DIMSTYLE
105
206
100
AcDbSymbolTableRecord
100
AcDbDimStyleTableRecord
  2
STANDARD
 70
0
  3

  4

 40
1.0
 41
3.5
 42
0.0
 43
0.38
 44
1.5
 45
0.0
 46
0.0
 47
0.005
 48
0.005
140
3.0
141
0.09
142
0.0
143
25.4
144
1.0
145
0.0
146
1.0
147
0.625
 71
1.0
 72
0.0
 73
0
 74
0
 75
0
 76
0
 77
1
 78
8
170
0
171
2
172
0
173
0
174
0
175
0
176
0
177
0
178
5
270
2
271
3
272
3
273
2
274
2
275
0
280
0
281
0
282
0
283
1
284
8
285
0
286
0
287
3
288
0
340
11
278
46
  0
ENDTAB
  0
ENDSEC
  0
SECTION
  2
BLOCKS
  0
BLOCK
  5
20
100
AcDbEntity
  8
0
100
AcDbBlockBegin
  2
*Model_Space
 70
0
 10
0.0
 20
0.0
 30
0.0
  3
*Model_Space
  1

  0
ENDBLK
  5
21
100
AcDbEntity
  8
0
100
AcDbBlockEnd
  0
BLOCK
  5
1C
100
AcDbEntity
  8
0
100
AcDbBlockBegin
  2
*Paper_Space
 70
0
 10
0.0
 20
0.0
 30
0.0
  3
*Paper_Space
  1

  0
ENDBLK
  5
1D
100
AcDbEntity
  8
0
100
AcDbBlockEnd
  0
ENDSEC
  0
SECTION
  2
ENTITIES
  0
LINE
  5
207
100
AcDbEntity
  8
0
100
AcDbLine
 62
7
  6
CONTINUOUS
 10
0.0
 20
-0.0
 11
0.0
 21
297.0
  0
LINE
  5
208
100
AcDbEntity
  8
0
100
AcDbLine
 62
7
  6
CONTINUOUS
 10
0.0
 20
-0.0
 11
420.0
 21
-0.0
  0
LINE
  5
209
100
AcDbEntity
  8
0
100
AcDbLine
 62
7
  6
CONTINUOUS
 10
0.0
 20
297.0
 11
420.0
 21
297.0
  0
LINE
  5
20A
100
AcDbEntity
  8
0
100
AcDbLine
 62
7
  6
CONTINUOUS
 10
420.0
 20
-0.0
 11
420.0
 21
297.0
  0
LINE
  5
20B
100
AcDbEntity
  8
05_CURVES
100
AcDbLine
 62
4
  6
CONTINUOUS
 10
27.190934806
 20
152.7020117205
 11
27.190934806
 21
92.7020117205
  0
LINE
  5
20C
100
AcDbEntity
  8
05_CURVES
100
AcDbLine
 62
4
  6
CONTINUOUS
 10
39.190934806
 20
107.7020117205
 11
39.190934806
 21
89.7020117205
  0
LINE
  5
20D
100
AcDbEntity
  8
05_CURVES
100
AcDbLine
 62
4
  6
CONTINUOUS
 10
39.190934806
 20
137.7020117205
 11
39.190934806
 21
155.7020117205
  0
LINE
  5
20E
100
AcDbEntity
  8
05_CURVES
100
AcDbLine
 62
4
  6
CONTINUOUS
 10
39.190934806
 20
218.7020117205
 11
39.190934806
 21
236.7020117205
  0
LINE
  5
20F
100
AcDbEntity
  8
05_CURVES
100
AcDbLine
 62
4
  6
CONTINUOUS
 10
63.190934806
 20
236.7020117205
 11
63.190934806
 21
218.7020117205
  0
LINE
  5
210
100
AcDbEntity
  8
05_CURVES
100
AcDbLine
 62
4
  6
CONTINUOUS
 10
63.190934806
 20
155.7020117205
 11
63.190934806
 21
137.7020117205
  0
LINE
  5
211
100
AcDbEntity
  8
05_CURVES
100
AcDbLine
 62
4
  6
CONTINUOUS
 10
63.190934806
 20
89.7020117205
 11
63.190934806
 21
107.7020117205
  0
LINE
  5
212
100
AcDbEntity
  8
05_CURVES
100
AcDbLine
 62
4
  6
CONTINUOUS
 10
66.190934806
 20
242.7020117205
 11
66.190934806
 21
212.7020117205
  0
LINE
  5
213
100
AcDbEntity
  8
05_CURVES
100
AcDbLine
 62
4
  6
CONTINUOUS
 10
75.190934806
 20
92.7020117205
 11
75.190934806
 21
95.7020117205
  0
LINE
  5
214
100
AcDbEntity
  8
05_CURVES
100
AcDbLine
 62
4
  6
CONTINUOUS
 10
75.190934806
 20
101.7020117205
 11
75.190934806
 21
143.7020117205
  0
LINE
  5
215
100
AcDbEntity
  8
05_CURVES
100
AcDbLine
 62
4
  6
CONTINUOUS
 10
75.190934806
 20
149.7020117205
 11
75.190934806
 21
152.7020117205
  0
LINE
  5
216
100
AcDbEntity
  8
05_CURVES
100
AcDbLine
 62
4
  6
CONTINUOUS
 10
78.190934806
 20
150.9020117205
 11
78.190934806
 21
203.7020117205
  0
LINE
  5
217
100
AcDbEntity
  8
05_CURVES
100
AcDbLine
 62
4
  6
CONTINUOUS
 10
84.190934806
 20
199.5020117205
 11
84.190934806
 21
146.7020117205
  0
LINE
  5
218
100
AcDbEntity
  8
05_CURVES
100
AcDbLine
 62
4
  6
CONTINUOUS
 10
90.190934806
 20
102.9020117205
 11
90.190934806
 21
191.7020117205
  0
LINE
  5
219
100
AcDbEntity
  8
05_CURVES
100
AcDbLine
 62
4
  6
CONTINUOUS
 10
90.190934806
 20
218.7020117205
 11
90.190934806
 21
236.7020117205
  0
LINE
  5
21A
100
AcDbEntity
  8
05_CURVES
100
AcDbLine
 62
4
  6
CONTINUOUS
 10
96.190934806
 20
187.5020117205
 11
96.190934806
 21
98.7020117205
  0
LINE
  5
21B
100
AcDbEntity
  8
05_CURVES
100
AcDbLine
 62
4
  6
CONTINUOUS
 10
108.190934806
 20
106.2020117205
 11
108.190934806
 21
97.2020117205
  0
LINE
  5
21C
100
AcDbEntity
  8
05_CURVES
100
AcDbLine
 62
4
  6
CONTINUOUS
 10
108.190934806
 20
88.2020117205
 11
108.190934806
 21
79.2020117205
  0
LINE
  5
21D
100
AcDbEntity
  8
05_CURVES
100
AcDbLine
 62
4
  6
CONTINUOUS
 10
114.190934806
 20
236.7020117205
 11
114.190934806
 21
218.7020117205
  0
LINE
  5
21E
100
AcDbEntity
  8
05_CURVES
100
AcDbLine
 62
4
  6
CONTINUOUS
 10
117.190934806
 20
106.2020117205
 11
117.190934806
 21
112.327041841
  0
LINE
  5
21F
100
AcDbEntity
  8
05_CURVES
100
AcDbLine
 62
4
  6
CONTINUOUS
 10
117.190934806
 20
133.0769816
 11
117.190934806
 21
142.327041841
  0
LINE
  5
220
100
AcDbEntity
  8
05_CURVES
100
AcDbLine
 62
4
  6
CONTINUOUS
 10
117.190934806
 20
163.0769816
 11
117.190934806
 21
242.7020117205
  0
LINE
  5
221
100
AcDbEntity
  8
05_CURVES
100
AcDbLine
 62
4
  6
CONTINUOUS
 10
123.190934806
 20
106.2020117205
 11
123.190934806
 21
112.327041841
  0
LINE
  5
222
100
AcDbEntity
  8
05_CURVES
100
AcDbLine
 62
4
  6
CONTINUOUS
 10
123.190934806
 20
133.0769816
 11
123.190934806
 21
142.327041841
  0
LINE
  5
223
100
AcDbEntity
  8
05_CURVES
100
AcDbLine
 62
4
  6
CONTINUOUS
 10
123.190934806
 20
163.0769816
 11
123.190934806
 21
242.7020117205
  0
LINE
  5
224
100
AcDbEntity
  8
05_CURVES
100
AcDbLine
 62
4
  6
CONTINUOUS
 10
333.190934806
 20
65.7020117205
 11
363.190934806
 21
65.7020117205
  0
LINE
  5
225
100
AcDbEntity
  8
05_CURVES
100
AcDbLine
 62
4
  6
CONTINUOUS
 10
132.190934806
 20
88.2020117205
 11
132.190934806
 21
242.7020117205
  0
LINE
  5
226
100
AcDbEntity
  8
05_CURVES
100
AcDbLine
 62
4
  6
CONTINUOUS
 10
138.190934806
 20
88.2020117205
 11
138.190934806
 21
242.7020117205
  0
LINE
  5
227
100
AcDbEntity
  8
05_CURVES
100
AcDbLine
 62
4
  6
CONTINUOUS
 10
141.190934806
 20
164.7020117205
 11
141.190934806
 21
182.7020117205
  0
LINE
  5
228
100
AcDbEntity
  8
05_CURVES
100
AcDbLine
 62
4
  6
CONTINUOUS
 10
141.190934806
 20
218.7020117205
 11
141.190934806
 21
236.7020117205
  0
LINE
  5
229
100
AcDbEntity
  8
05_CURVES
100
AcDbLine
 62
4
  6
CONTINUOUS
 10
125.0019815661
 20
123.2704177934
 11
126.5548958367
 21
129.0659727512
  0
LINE
  5
22A
100
AcDbEntity
  8
05_CURVES
100
AcDbLine
 62
4
  6
CONTINUOUS
 10
315.190934806
 20
68.7020117205
 11
291.190934806
 21
68.7020117205
  0
LINE
  5
22B
100
AcDbEntity
  8
05_CURVES
100
AcDbLine
 62
4
  6
CONTINUOUS
 10
358.990934806
 20
71.7020117205
 11
333.190934806
 21
71.7020117205
  0
LINE
  5
22C
100
AcDbEntity
  8
05_CURVES
100
AcDbLine
 62
4
  6
CONTINUOUS
 10
273.190934806
 20
79.2020117205
 11
108.190934806
 21
79.2020117205
  0
LINE
  5
22D
100
AcDbEntity
  8
05_CURVES
100
AcDbLine
 62
4
  6
CONTINUOUS
 10
120.759340879
 20
127.5130584805
 11
122.0321330851
 21
126.2402662744
  0
LINE
  5
22E
100
AcDbEntity
  8
05_CURVES
100
AcDbLine
 62
4
  6
CONTINUOUS
 10
123.72918936
 20
124.5432099996
 11
125.0019815661
 21
123.2704177934
  0
LINE
  5
22F
100
AcDbEntity
  8
05_CURVES
100
AcDbLine
 62
4
  6
CONTINUOUS
 10
291.190934806
 20
86.7020117205
 11
315.190934806
 21
86.7020117205
  0
LINE
  5
230
100
AcDbEntity
  8
05_CURVES
100
AcDbLine
 62
4
  6
CONTINUOUS
 10
273.190934806
 20
88.2020117205
 11
222.190934806
 21
88.2020117205
  0
LINE
  5
231
100
AcDbEntity
  8
05_CURVES
100
AcDbLine
 62
4
  6
CONTINUOUS
 10
216.190934806
 20
88.2020117205
 11
189.190934806
 21
88.2020117205
  0
LINE
  5
232
100
AcDbEntity
  8
05_CURVES
100
AcDbLine
 62
4
  6
CONTINUOUS
 10
183.190934806
 20
88.2020117205
 11
138.190934806
 21
88.2020117205
  0
LINE
  5
233
100
AcDbEntity
  8
05_CURVES
100
AcDbLine
 62
4
  6
CONTINUOUS
 10
132.190934806
 20
88.2020117205
 11
108.190934806
 21
88.2020117205
  0
LINE
  5
234
100
AcDbEntity
  8
05_CURVES
100
AcDbLine
 62
4
  6
CONTINUOUS
 10
39.190934806
 20
89.7020117205
 11
63.190934806
 21
89.7020117205
  0
LINE
  5
235
100
AcDbEntity
  8
05_CURVES
100
AcDbLine
 62
4
  6
CONTINUOUS
 10
165.190934806
 20
236.7020117205
 11
165.190934806
 21
218.7020117205
  0
LINE
  5
236
100
AcDbEntity
  8
05_CURVES
100
AcDbLine
 62
4
  6
CONTINUOUS
 10
165.190934806
 20
182.7020117205
 11
165.190934806
 21
164.7020117205
  0
LINE
  5
237
100
AcDbEntity
  8
05_CURVES
100
AcDbLine
 62
4
  6
CONTINUOUS
 10
168.190934806
 20
106.2020117205
 11
168.190934806
 21
112.327041841
  0
LINE
  5
238
100
AcDbEntity
  8
05_CURVES
100
AcDbLine
 62
4
  6
CONTINUOUS
 10
168.190934806
 20
133.0769816
 11
168.190934806
 21
142.327041841
  0
LINE
  5
239
100
AcDbEntity
  8
05_CURVES
100
AcDbLine
 62
4
  6
CONTINUOUS
 10
168.190934806
 20
163.0769816
 11
168.190934806
 21
187.5020117205
  0
LINE
  5
23A
100
AcDbEntity
  8
05_CURVES
100
AcDbLine
 62
4
  6
CONTINUOUS
 10
122.0321330851
 20
126.2402662744
 11
113.0352678561
 21
117.2434010454
  0
LINE
  5
23B
100
AcDbEntity
  8
05_CURVES
100
AcDbLine
 62
4
  6
CONTINUOUS
 10
114.732324131
 20
115.5463447706
 11
123.72918936
 21
124.5432099996
  0
LINE
  5
23C
100
AcDbEntity
  8
05_CURVES
100
AcDbLine
 62
4
  6
CONTINUOUS
 10
75.190934806
 20
95.7020117205
 11
93.190934806
 21
95.7020117205
  0
LINE
  5
23D
100
AcDbEntity
  8
05_CURVES
100
AcDbLine
 62
4
  6
CONTINUOUS
 10
273.190934806
 20
97.2020117205
 11
265.0087757092
 21
97.2020117205
  0
LINE
  5
23E
100
AcDbEntity
  8
05_CURVES
100
AcDbLine
 62
4
  6
CONTINUOUS
 10
216.190934806
 20
97.2020117205
 11
189.190934806
 21
97.2020117205
  0
LINE
  5
23F
100
AcDbEntity
  8
05_CURVES
100
AcDbLine
 62
4
  6
CONTINUOUS
 10
183.190934806
 20
97.2020117205
 11
138.190934806
 21
97.2020117205
  0
LINE
  5
240
100
AcDbEntity
  8
05_CURVES
100
AcDbLine
 62
4
  6
CONTINUOUS
 10
132.190934806
 20
97.2020117205
 11
108.190934806
 21
97.2020117205
  0
LINE
  5
241
100
AcDbEntity
  8
05_CURVES
100
AcDbLine
 62
4
  6
CONTINUOUS
 10
222.190934806
 20
97.2020117205
 11
245.3730939029
 21
97.2020117205
  0
LINE
  5
242
100
AcDbEntity
  8
05_CURVES
100
AcDbLine
 62
4
  6
CONTINUOUS
 10
88.990934806
 20
101.7020117205
 11
75.190934806
 21
101.7020117205
  0
LINE
  5
243
100
AcDbEntity
  8
05_CURVES
100
AcDbLine
 62
4
  6
CONTINUOUS
 10
273.190934806
 20
106.2020117205
 11
265.0087757092
 21
106.2020117205
  0
LINE
  5
244
100
AcDbEntity
  8
05_CURVES
100
AcDbLine
 62
4
  6
CONTINUOUS
 10
245.3730939029
 20
106.2020117205
 11
237.190934806
 21
106.2020117205
  0
LINE
  5
245
100
AcDbEntity
  8
05_CURVES
100
AcDbLine
 62
4
  6
CONTINUOUS
 10
231.190934806
 20
106.2020117205
 11
222.190934806
 21
106.2020117205
  0
LINE
  5
246
100
AcDbEntity
  8
05_CURVES
100
AcDbLine
 62
4
  6
CONTINUOUS
 10
216.190934806
 20
106.2020117205
 11
189.190934806
 21
106.2020117205
  0
LINE
  5
247
100
AcDbEntity
  8
05_CURVES
100
AcDbLine
 62
4
  6
CONTINUOUS
 10
183.190934806
 20
106.2020117205
 11
174.190934806
 21
106.2020117205
  0
LINE
  5
248
100
AcDbEntity
  8
05_CURVES
100
AcDbLine
 62
4
  6
CONTINUOUS
 10
168.190934806
 20
106.2020117205
 11
138.190934806
 21
106.2020117205
  0
LINE
  5
249
100
AcDbEntity
  8
05_CURVES
100
AcDbLine
 62
4
  6
CONTINUOUS
 10
132.190934806
 20
106.2020117205
 11
123.190934806
 21
106.2020117205
  0
LINE
  5
24A
100
AcDbEntity
  8
05_CURVES
100
AcDbLine
 62
4
  6
CONTINUOUS
 10
117.190934806
 20
106.2020117205
 11
108.190934806
 21
106.2020117205
  0
LINE
  5
24B
100
AcDbEntity
  8
05_CURVES
100
AcDbLine
 62
4
  6
CONTINUOUS
 10
66.190934806
 20
214.4117238916
 11
69.190934806
 21
211.8944249981
  0
LINE
  5
24C
100
AcDbEntity
  8
05_CURVES
100
AcDbLine
 62
4
  6
CONTINUOUS
 10
178.9851634401
 20
118.2020117205
 11
171.190934806
 21
131.7020117205
  0
LINE
  5
24D
100
AcDbEntity
  8
05_CURVES
100
AcDbLine
 62
4
  6
CONTINUOUS
 10
174.190934806
 20
106.2020117205
 11
174.190934806
 21
112.327041841
  0
LINE
  5
24E
100
AcDbEntity
  8
05_CURVES
100
AcDbLine
 62
4
  6
CONTINUOUS
 10
174.190934806
 20
133.0769816
 11
174.190934806
 21
142.327041841
  0
LINE
  5
24F
100
AcDbEntity
  8
05_CURVES
100
AcDbLine
 62
4
  6
CONTINUOUS
 10
174.190934806
 20
163.0769816
 11
174.190934806
 21
191.7020117205
  0
LINE
  5
250
100
AcDbEntity
  8
05_CURVES
100
AcDbLine
 62
4
  6
CONTINUOUS
 10
183.190934806
 20
88.2020117205
 11
183.190934806
 21
199.5020117205
  0
LINE
  5
251
100
AcDbEntity
  8
05_CURVES
100
AcDbLine
 62
4
  6
CONTINUOUS
 10
171.190934806
 20
131.7020117205
 11
163.396706172
 21
118.2020117205
  0
LINE
  5
252
100
AcDbEntity
  8
05_CURVES
100
AcDbLine
 62
4
  6
CONTINUOUS
 10
63.190934806
 20
107.7020117205
 11
39.190934806
 21
107.7020117205
  0
LINE
  5
253
100
AcDbEntity
  8
05_CURVES
100
AcDbLine
 62
4
  6
CONTINUOUS
 10
315.190934806
 20
113.7020117205
 11
291.190934806
 21
113.7020117205
  0
LINE
  5
254
100
AcDbEntity
  8
05_CURVES
100
AcDbLine
 62
4
  6
CONTINUOUS
 10
163.396706172
 20
118.2020117205
 11
178.9851634401
 21
118.2020117205
  0
LINE
  5
255
100
AcDbEntity
  8
05_CURVES
100
AcDbLine
 62
4
  6
CONTINUOUS
 10
66.190934806
 20
216.9290227852
 11
69.190934806
 21
214.4117238916
  0
LINE
  5
256
100
AcDbEntity
  8
05_CURVES
100
AcDbLine
 62
4
  6
CONTINUOUS
 10
66.190934806
 20
219.4463216787
 11
69.190934806
 21
216.9290227852
  0
LINE
  5
257
100
AcDbEntity
  8
05_CURVES
100
AcDbLine
 62
4
  6
CONTINUOUS
 10
66.190934806
 20
221.9636205722
 11
69.190934806
 21
219.4463216787
  0
LINE
  5
258
100
AcDbEntity
  8
05_CURVES
100
AcDbLine
 62
4
  6
CONTINUOUS
 10
66.190934806
 20
224.4809194658
 11
69.190934806
 21
221.9636205722
  0
LINE
  5
259
100
AcDbEntity
  8
05_CURVES
100
AcDbLine
 62
4
  6
CONTINUOUS
 10
66.190934806
 20
226.9982183593
 11
69.190934806
 21
224.4809194658
  0
LINE
  5
25A
100
AcDbEntity
  8
05_CURVES
100
AcDbLine
 62
4
  6
CONTINUOUS
 10
66.190934806
 20
229.5155172528
 11
69.190934806
 21
226.9982183593
  0
LINE
  5
25B
100
AcDbEntity
  8
05_CURVES
100
AcDbLine
 62
4
  6
CONTINUOUS
 10
66.190934806
 20
232.0328161463
 11
69.190934806
 21
229.5155172528
  0
LINE
  5
25C
100
AcDbEntity
  8
05_CURVES
100
AcDbLine
 62
4
  6
CONTINUOUS
 10
189.190934806
 20
88.2020117205
 11
189.190934806
 21
203.7020117205
  0
LINE
  5
25D
100
AcDbEntity
  8
05_CURVES
100
AcDbLine
 62
4
  6
CONTINUOUS
 10
192.190934806
 20
164.7020117205
 11
192.190934806
 21
182.7020117205
  0
LINE
  5
25E
100
AcDbEntity
  8
05_CURVES
100
AcDbLine
 62
4
  6
CONTINUOUS
 10
225.5548958367
 20
129.0659727512
 11
219.759340879
 21
127.5130584805
  0
LINE
  5
25F
100
AcDbEntity
  8
05_CURVES
100
AcDbLine
 62
4
  6
CONTINUOUS
 10
291.190934806
 20
131.7020117205
 11
315.190934806
 21
131.7020117205
  0
LINE
  5
260
100
AcDbEntity
  8
05_CURVES
100
AcDbLine
 62
4
  6
CONTINUOUS
 10
246.190934806
 20
101.7020117205
 11
259.690934806
 21
93.9077830864
  0
LINE
  5
261
100
AcDbEntity
  8
05_CURVES
100
AcDbLine
 62
4
  6
CONTINUOUS
 10
66.190934806
 20
234.5501150399
 11
69.190934806
 21
232.0328161463
  0
LINE
  5
262
100
AcDbEntity
  8
05_CURVES
100
AcDbLine
 62
4
  6
CONTINUOUS
 10
66.190934806
 20
237.0674139334
 11
69.190934806
 21
234.5501150399
  0
LINE
  5
263
100
AcDbEntity
  8
05_CURVES
100
AcDbLine
 62
4
  6
CONTINUOUS
 10
66.190934806
 20
239.5847128269
 11
69.190934806
 21
237.0674139334
  0
LINE
  5
264
100
AcDbEntity
  8
05_CURVES
100
AcDbLine
 62
4
  6
CONTINUOUS
 10
66.190934806
 20
242.1020117205
 11
69.190934806
 21
239.5847128269
  0
LINE
  5
265
100
AcDbEntity
  8
05_CURVES
100
AcDbLine
 62
4
  6
CONTINUOUS
 10
201.190934806
 20
236.7020117205
 11
201.190934806
 21
218.7020117205
  0
LINE
  5
266
100
AcDbEntity
  8
05_CURVES
100
AcDbLine
 62
4
  6
CONTINUOUS
 10
204.190934806
 20
218.7020117205
 11
204.190934806
 21
188.7020117205
  0
LINE
  5
267
100
AcDbEntity
  8
05_CURVES
100
AcDbLine
 62
4
  6
CONTINUOUS
 10
63.190934806
 20
137.7020117205
 11
39.190934806
 21
137.7020117205
  0
LINE
  5
268
100
AcDbEntity
  8
05_CURVES
100
AcDbLine
 62
4
  6
CONTINUOUS
 10
81.190934806
 20
143.7020117205
 11
75.190934806
 21
143.7020117205
  0
LINE
  5
269
100
AcDbEntity
  8
05_CURVES
100
AcDbLine
 62
4
  6
CONTINUOUS
 10
219.759340879
 20
127.5130584805
 11
221.0321330851
 21
126.2402662744
  0
LINE
  5
26A
100
AcDbEntity
  8
05_CURVES
100
AcDbLine
 62
4
  6
CONTINUOUS
 10
222.72918936
 20
124.5432099996
 11
224.0019815661
 21
123.2704177934
  0
LINE
  5
26B
100
AcDbEntity
  8
05_CURVES
100
AcDbLine
 62
4
  6
CONTINUOUS
 10
216.190934806
 20
88.2020117205
 11
216.190934806
 21
112.327041841
  0
LINE
  5
26C
100
AcDbEntity
  8
05_CURVES
100
AcDbLine
 62
4
  6
CONTINUOUS
 10
216.190934806
 20
133.0769816
 11
216.190934806
 21
142.327041841
  0
LINE
  5
26D
100
AcDbEntity
  8
05_CURVES
100
AcDbLine
 62
4
  6
CONTINUOUS
 10
216.190934806
 20
163.0769816
 11
216.190934806
 21
199.2020117205
  0
LINE
  5
26E
100
AcDbEntity
  8
05_CURVES
100
AcDbLine
 62
4
  6
CONTINUOUS
 10
222.190934806
 20
88.2020117205
 11
222.190934806
 21
112.327041841
  0
LINE
  5
26F
100
AcDbEntity
  8
05_CURVES
100
AcDbLine
 62
4
  6
CONTINUOUS
 10
222.190934806
 20
133.0769816
 11
222.190934806
 21
142.327041841
  0
LINE
  5
270
100
AcDbEntity
  8
05_CURVES
100
AcDbLine
 62
4
  6
CONTINUOUS
 10
222.190934806
 20
163.0769816
 11
222.190934806
 21
199.2020117205
  0
LINE
  5
271
100
AcDbEntity
  8
05_CURVES
100
AcDbLine
 62
4
  6
CONTINUOUS
 10
225.190934806
 20
218.7020117205
 11
225.190934806
 21
236.7020117205
  0
LINE
  5
272
100
AcDbEntity
  8
05_CURVES
100
AcDbLine
 62
4
  6
CONTINUOUS
 10
126.5548958367
 20
129.0659727512
 11
120.759340879
 21
127.5130584805
  0
LINE
  5
273
100
AcDbEntity
  8
05_CURVES
100
AcDbLine
 62
4
  6
CONTINUOUS
 10
75.190934806
 20
149.7020117205
 11
76.990934806
 21
149.7020117205
  0
LINE
  5
274
100
AcDbEntity
  8
05_CURVES
100
AcDbLine
 62
4
  6
CONTINUOUS
 10
39.190934806
 20
155.7020117205
 11
63.190934806
 21
155.7020117205
  0
LINE
  5
275
100
AcDbEntity
  8
05_CURVES
100
AcDbLine
 62
4
  6
CONTINUOUS
 10
315.190934806
 20
158.7020117205
 11
291.190934806
 21
158.7020117205
  0
LINE
  5
276
100
AcDbEntity
  8
05_CURVES
100
AcDbLine
 62
4
  6
CONTINUOUS
 10
228.190934806
 20
236.7020117205
 11
228.190934806
 21
218.7020117205
  0
LINE
  5
277
100
AcDbEntity
  8
05_CURVES
100
AcDbLine
 62
4
  6
CONTINUOUS
 10
231.190934806
 20
106.2020117205
 11
231.190934806
 21
199.2020117205
  0
LINE
  5
278
100
AcDbEntity
  8
05_CURVES
100
AcDbLine
 62
4
  6
CONTINUOUS
 10
237.190934806
 20
106.2020117205
 11
237.190934806
 21
199.2020117205
  0
LINE
  5
279
100
AcDbEntity
  8
05_CURVES
100
AcDbLine
 62
4
  6
CONTINUOUS
 10
224.0019815661
 20
123.2704177934
 11
225.5548958367
 21
129.0659727512
  0
LINE
  5
27A
100
AcDbEntity
  8
05_CURVES
100
AcDbLine
 62
4
  6
CONTINUOUS
 10
221.0321330851
 20
126.2402662744
 11
212.0352678561
 21
117.2434010454
  0
LINE
  5
27B
100
AcDbEntity
  8
05_CURVES
100
AcDbLine
 62
4
  6
CONTINUOUS
 10
213.732324131
 20
115.5463447706
 11
222.72918936
 21
124.5432099996
  0
LINE
  5
27C
100
AcDbEntity
  8
05_CURVES
100
AcDbLine
 62
4
  6
CONTINUOUS
 10
216.190934806
 20
164.7020117205
 11
192.190934806
 21
164.7020117205
  0
LINE
  5
27D
100
AcDbEntity
  8
05_CURVES
100
AcDbLine
 62
4
  6
CONTINUOUS
 10
165.190934806
 20
164.7020117205
 11
141.190934806
 21
164.7020117205
  0
LINE
  5
27E
100
AcDbEntity
  8
05_CURVES
100
AcDbLine
 62
4
  6
CONTINUOUS
 10
351.190934806
 20
173.7020117205
 11
333.190934806
 21
173.7020117205
  0
LINE
  5
27F
100
AcDbEntity
  8
05_CURVES
100
AcDbLine
 62
4
  6
CONTINUOUS
 10
165.190934806
 20
173.7020117205
 11
168.190934806
 21
173.7020117205
  0
LINE
  5
280
100
AcDbEntity
  8
05_CURVES
100
AcDbLine
 62
4
  6
CONTINUOUS
 10
189.190934806
 20
173.7020117205
 11
192.190934806
 21
173.7020117205
  0
LINE
  5
281
100
AcDbEntity
  8
05_CURVES
100
AcDbLine
 62
4
  6
CONTINUOUS
 10
249.190934806
 20
188.7020117205
 11
249.190934806
 21
218.7020117205
  0
LINE
  5
282
100
AcDbEntity
  8
05_CURVES
100
AcDbLine
 62
4
  6
CONTINUOUS
 10
252.190934806
 20
218.7020117205
 11
252.190934806
 21
236.7020117205
  0
LINE
  5
283
100
AcDbEntity
  8
05_CURVES
100
AcDbLine
 62
4
  6
CONTINUOUS
 10
291.190934806
 20
176.7020117205
 11
315.190934806
 21
176.7020117205
  0
LINE
  5
284
100
AcDbEntity
  8
05_CURVES
100
AcDbLine
 62
4
  6
CONTINUOUS
 10
333.190934806
 20
179.7020117205
 11
346.990934806
 21
179.7020117205
  0
LINE
  5
285
100
AcDbEntity
  8
05_CURVES
100
AcDbLine
 62
4
  6
CONTINUOUS
 10
141.190934806
 20
182.7020117205
 11
165.190934806
 21
182.7020117205
  0
LINE
  5
286
100
AcDbEntity
  8
05_CURVES
100
AcDbLine
 62
4
  6
CONTINUOUS
 10
192.190934806
 20
182.7020117205
 11
216.190934806
 21
182.7020117205
  0
LINE
  5
287
100
AcDbEntity
  8
05_CURVES
100
AcDbLine
 62
4
  6
CONTINUOUS
 10
166.990934806
 20
188.7020117205
 11
138.190934806
 21
188.7020117205
  0
LINE
  5
288
100
AcDbEntity
  8
05_CURVES
100
AcDbLine
 62
4
  6
CONTINUOUS
 10
132.190934806
 20
188.7020117205
 11
123.190934806
 21
188.7020117205
  0
LINE
  5
289
100
AcDbEntity
  8
05_CURVES
100
AcDbLine
 62
4
  6
CONTINUOUS
 10
117.190934806
 20
188.7020117205
 11
97.390934806
 21
188.7020117205
  0
LINE
  5
28A
100
AcDbEntity
  8
05_CURVES
100
AcDbLine
 62
4
  6
CONTINUOUS
 10
204.190934806
 20
188.7020117205
 11
216.190934806
 21
188.7020117205
  0
LINE
  5
28B
100
AcDbEntity
  8
05_CURVES
100
AcDbLine
 62
4
  6
CONTINUOUS
 10
237.190934806
 20
188.7020117205
 11
249.190934806
 21
188.7020117205
  0
LINE
  5
28C
100
AcDbEntity
  8
05_CURVES
100
AcDbLine
 62
4
  6
CONTINUOUS
 10
259.690934806
 20
93.9077830864
 11
259.690934806
 21
109.4962403545
  0
LINE
  5
28D
100
AcDbEntity
  8
05_CURVES
100
AcDbLine
 62
4
  6
CONTINUOUS
 10
93.190934806
 20
194.7020117205
 11
117.190934806
 21
194.7020117205
  0
LINE
  5
28E
100
AcDbEntity
  8
05_CURVES
100
AcDbLine
 62
4
  6
CONTINUOUS
 10
123.190934806
 20
194.7020117205
 11
132.190934806
 21
194.7020117205
  0
LINE
  5
28F
100
AcDbEntity
  8
05_CURVES
100
AcDbLine
 62
4
  6
CONTINUOUS
 10
138.190934806
 20
194.7020117205
 11
171.190934806
 21
194.7020117205
  0
LINE
  5
290
100
AcDbEntity
  8
05_CURVES
100
AcDbLine
 62
4
  6
CONTINUOUS
 10
213.190934806
 20
199.2020117205
 11
216.190934806
 21
199.2020117205
  0
LINE
  5
291
100
AcDbEntity
  8
05_CURVES
100
AcDbLine
 62
4
  6
CONTINUOUS
 10
222.190934806
 20
199.2020117205
 11
231.190934806
 21
199.2020117205
  0
LINE
  5
292
100
AcDbEntity
  8
05_CURVES
100
AcDbLine
 62
4
  6
CONTINUOUS
 10
237.190934806
 20
199.2020117205
 11
240.190934806
 21
199.2020117205
  0
LINE
  5
293
100
AcDbEntity
  8
05_CURVES
100
AcDbLine
 62
4
  6
CONTINUOUS
 10
181.990934806
 20
200.7020117205
 11
138.190934806
 21
200.7020117205
  0
LINE
  5
294
100
AcDbEntity
  8
05_CURVES
100
AcDbLine
 62
4
  6
CONTINUOUS
 10
132.190934806
 20
200.7020117205
 11
123.190934806
 21
200.7020117205
  0
LINE
  5
295
100
AcDbEntity
  8
05_CURVES
100
AcDbLine
 62
4
  6
CONTINUOUS
 10
117.190934806
 20
200.7020117205
 11
85.390934806
 21
200.7020117205
  0
LINE
  5
296
100
AcDbEntity
  8
05_CURVES
100
AcDbLine
 62
4
  6
CONTINUOUS
 10
273.190934806
 20
182.7020117205
 11
273.190934806
 21
106.2020117205
  0
LINE
  5
297
100
AcDbEntity
  8
05_CURVES
100
AcDbLine
 62
4
  6
CONTINUOUS
 10
273.190934806
 20
97.2020117205
 11
273.190934806
 21
88.2020117205
  0
LINE
  5
298
100
AcDbEntity
  8
05_CURVES
100
AcDbLine
 62
4
  6
CONTINUOUS
 10
273.190934806
 20
79.2020117205
 11
273.190934806
 21
62.7020117205
  0
LINE
  5
299
100
AcDbEntity
  8
05_CURVES
100
AcDbLine
 62
4
  6
CONTINUOUS
 10
259.690934806
 20
109.4962403545
 11
246.190934806
 21
101.7020117205
  0
LINE
  5
29A
100
AcDbEntity
  8
05_CURVES
100
AcDbLine
 62
4
  6
CONTINUOUS
 10
81.190934806
 20
206.7020117205
 11
117.190934806
 21
206.7020117205
  0
LINE
  5
29B
100
AcDbEntity
  8
05_CURVES
100
AcDbLine
 62
4
  6
CONTINUOUS
 10
123.190934806
 20
206.7020117205
 11
132.190934806
 21
206.7020117205
  0
LINE
  5
29C
100
AcDbEntity
  8
05_CURVES
100
AcDbLine
 62
4
  6
CONTINUOUS
 10
138.190934806
 20
206.7020117205
 11
186.190934806
 21
206.7020117205
  0
LINE
  5
29D
100
AcDbEntity
  8
05_CURVES
100
AcDbLine
 62
4
  6
CONTINUOUS
 10
240.190934806
 20
214.2020117205
 11
213.190934806
 21
214.2020117205
  0
LINE
  5
29E
100
AcDbEntity
  8
05_CURVES
100
AcDbLine
 62
4
  6
CONTINUOUS
 10
291.190934806
 20
68.7020117205
 11
291.190934806
 21
86.7020117205
  0
LINE
  5
29F
100
AcDbEntity
  8
05_CURVES
100
AcDbLine
 62
4
  6
CONTINUOUS
 10
291.190934806
 20
113.7020117205
 11
291.190934806
 21
131.7020117205
  0
LINE
  5
2A0
100
AcDbEntity
  8
05_CURVES
100
AcDbLine
 62
4
  6
CONTINUOUS
 10
291.190934806
 20
158.7020117205
 11
291.190934806
 21
176.7020117205
  0
LINE
  5
2A1
100
AcDbEntity
  8
05_CURVES
100
AcDbLine
 62
4
  6
CONTINUOUS
 10
393.190934806
 20
218.7020117205
 11
369.190934806
 21
218.7020117205
  0
LINE
  5
2A2
100
AcDbEntity
  8
05_CURVES
100
AcDbLine
 62
4
  6
CONTINUOUS
 10
165.190934806
 20
218.7020117205
 11
141.190934806
 21
218.7020117205
  0
LINE
  5
2A3
100
AcDbEntity
  8
05_CURVES
100
AcDbLine
 62
4
  6
CONTINUOUS
 10
114.190934806
 20
218.7020117205
 11
90.190934806
 21
218.7020117205
  0
LINE
  5
2A4
100
AcDbEntity
  8
05_CURVES
100
AcDbLine
 62
4
  6
CONTINUOUS
 10
63.190934806
 20
218.7020117205
 11
39.190934806
 21
218.7020117205
  0
LINE
  5
2A5
100
AcDbEntity
  8
05_CURVES
100
AcDbLine
 62
4
  6
CONTINUOUS
 10
201.190934806
 20
218.7020117205
 11
225.190934806
 21
218.7020117205
  0
LINE
  5
2A6
100
AcDbEntity
  8
05_CURVES
100
AcDbLine
 62
4
  6
CONTINUOUS
 10
228.190934806
 20
218.7020117205
 11
252.190934806
 21
218.7020117205
  0
LINE
  5
2A7
100
AcDbEntity
  8
05_CURVES
100
AcDbLine
 62
4
  6
CONTINUOUS
 10
321.190934806
 20
218.7020117205
 11
345.190934806
 21
218.7020117205
  0
LINE
  5
2A8
100
AcDbEntity
  8
05_CURVES
100
AcDbLine
 62
4
  6
CONTINUOUS
 10
369.190934806
 20
227.7020117205
 11
366.190934806
 21
227.7020117205
  0
LINE
  5
2A9
100
AcDbEntity
  8
05_CURVES
100
AcDbLine
 62
4
  6
CONTINUOUS
 10
63.190934806
 20
227.7020117205
 11
66.190934806
 21
227.7020117205
  0
LINE
  5
2AA
100
AcDbEntity
  8
05_CURVES
100
AcDbLine
 62
4
  6
CONTINUOUS
 10
114.190934806
 20
227.7020117205
 11
117.190934806
 21
227.7020117205
  0
LINE
  5
2AB
100
AcDbEntity
  8
05_CURVES
100
AcDbLine
 62
4
  6
CONTINUOUS
 10
138.190934806
 20
227.7020117205
 11
141.190934806
 21
227.7020117205
  0
LINE
  5
2AC
100
AcDbEntity
  8
05_CURVES
100
AcDbLine
 62
4
  6
CONTINUOUS
 10
345.190934806
 20
227.7020117205
 11
348.190934806
 21
227.7020117205
  0
LINE
  5
2AD
100
AcDbEntity
  8
05_CURVES
100
AcDbLine
 62
4
  6
CONTINUOUS
 10
345.190934806
 20
236.7020117205
 11
321.190934806
 21
236.7020117205
  0
LINE
  5
2AE
100
AcDbEntity
  8
05_CURVES
100
AcDbLine
 62
4
  6
CONTINUOUS
 10
252.190934806
 20
236.7020117205
 11
228.190934806
 21
236.7020117205
  0
LINE
  5
2AF
100
AcDbEntity
  8
05_CURVES
100
AcDbLine
 62
4
  6
CONTINUOUS
 10
225.190934806
 20
236.7020117205
 11
201.190934806
 21
236.7020117205
  0
LINE
  5
2B0
100
AcDbEntity
  8
05_CURVES
100
AcDbLine
 62
4
  6
CONTINUOUS
 10
39.190934806
 20
236.7020117205
 11
63.190934806
 21
236.7020117205
  0
LINE
  5
2B1
100
AcDbEntity
  8
05_CURVES
100
AcDbLine
 62
4
  6
CONTINUOUS
 10
90.190934806
 20
236.7020117205
 11
114.190934806
 21
236.7020117205
  0
LINE
  5
2B2
100
AcDbEntity
  8
05_CURVES
100
AcDbLine
 62
4
  6
CONTINUOUS
 10
141.190934806
 20
236.7020117205
 11
165.190934806
 21
236.7020117205
  0
LINE
  5
2B3
100
AcDbEntity
  8
05_CURVES
100
AcDbLine
 62
4
  6
CONTINUOUS
 10
369.190934806
 20
236.7020117205
 11
393.190934806
 21
236.7020117205
  0
LINE
  5
2B4
100
AcDbEntity
  8
05_CURVES
100
AcDbLine
 62
4
  6
CONTINUOUS
 10
315.190934806
 20
176.7020117205
 11
315.190934806
 21
158.7020117205
  0
LINE
  5
2B5
100
AcDbEntity
  8
05_CURVES
100
AcDbLine
 62
4
  6
CONTINUOUS
 10
315.190934806
 20
131.7020117205
 11
315.190934806
 21
113.7020117205
  0
LINE
  5
2B6
100
AcDbEntity
  8
05_CURVES
100
AcDbLine
 62
4
  6
CONTINUOUS
 10
315.190934806
 20
86.7020117205
 11
315.190934806
 21
68.7020117205
  0
LINE
  5
2B7
100
AcDbEntity
  8
05_CURVES
100
AcDbLine
 62
4
  6
CONTINUOUS
 10
321.190934806
 20
236.7020117205
 11
321.190934806
 21
218.7020117205
  0
LINE
  5
2B8
100
AcDbEntity
  8
05_CURVES
100
AcDbLine
 62
4
  6
CONTINUOUS
 10
333.190934806
 20
62.7020117205
 11
333.190934806
 21
65.7020117205
  0
LINE
  5
2B9
100
AcDbEntity
  8
05_CURVES
100
AcDbLine
 62
4
  6
CONTINUOUS
 10
333.190934806
 20
71.7020117205
 11
333.190934806
 21
173.7020117205
  0
LINE
  5
2BA
100
AcDbEntity
  8
05_CURVES
100
AcDbLine
 62
4
  6
CONTINUOUS
 10
333.190934806
 20
179.7020117205
 11
333.190934806
 21
182.7020117205
  0
LINE
  5
2BB
100
AcDbEntity
  8
05_CURVES
100
AcDbLine
 62
4
  6
CONTINUOUS
 10
345.190934806
 20
218.7020117205
 11
345.190934806
 21
236.7020117205
  0
LINE
  5
2BC
100
AcDbEntity
  8
05_CURVES
100
AcDbLine
 62
4
  6
CONTINUOUS
 10
348.190934806
 20
180.9020117205
 11
348.190934806
 21
242.7020117205
  0
LINE
  5
2BD
100
AcDbEntity
  8
05_CURVES
100
AcDbLine
 62
4
  6
CONTINUOUS
 10
354.190934806
 20
242.7020117205
 11
354.190934806
 21
176.7020117205
  0
LINE
  5
2BE
100
AcDbEntity
  8
05_CURVES
100
AcDbLine
 62
4
  6
CONTINUOUS
 10
360.190934806
 20
72.9020117205
 11
360.190934806
 21
112.327041841
  0
LINE
  5
2BF
100
AcDbEntity
  8
05_CURVES
100
AcDbLine
 62
4
  6
CONTINUOUS
 10
360.190934806
 20
133.0769816
 11
360.190934806
 21
242.7020117205
  0
LINE
  5
2C0
100
AcDbEntity
  8
05_CURVES
100
AcDbLine
 62
4
  6
CONTINUOUS
 10
366.190934806
 20
242.7020117205
 11
366.190934806
 21
133.0769816
  0
LINE
  5
2C1
100
AcDbEntity
  8
05_CURVES
100
AcDbLine
 62
4
  6
CONTINUOUS
 10
366.190934806
 20
112.327041841
 11
366.190934806
 21
68.7020117205
  0
LINE
  5
2C2
100
AcDbEntity
  8
05_CURVES
100
AcDbLine
 62
4
  6
CONTINUOUS
 10
369.190934806
 20
218.7020117205
 11
369.190934806
 21
236.7020117205
  0
LINE
  5
2C3
100
AcDbEntity
  8
05_CURVES
100
AcDbLine
 62
4
  6
CONTINUOUS
 10
393.190934806
 20
236.7020117205
 11
393.190934806
 21
218.7020117205
  0
ARC
  5
2C4
100
AcDbEntity
  8
05_CURVES
100
AcDbCircle
 62
4
  6
CONTINUOUS
 10
51.190934806
 20
134.7020117205
 40
30.0
100
AcDbArc
 50
36.8698976458
 51
143.1301023542
  0
ARC
  5
2C5
100
AcDbEntity
  8
05_CURVES
100
AcDbCircle
 62
4
  6
CONTINUOUS
 10
51.190934806
 20
110.7020117205
 40
30.0
100
AcDbArc
 50
216.8698976458
 51
323.1301023542
  0
ARC
  5
2C6
100
AcDbEntity
  8
05_CURVES
100
AcDbCircle
 62
4
  6
CONTINUOUS
 10
171.190934806
 20
122.7020117205
 40
10.8
100
AcDbArc
 50
286.1276202132
 51
73.8723797868
  0
ARC
  5
2C7
100
AcDbEntity
  8
05_CURVES
100
AcDbCircle
 62
4
  6
CONTINUOUS
 10
171.190934806
 20
122.7020117205
 40
10.8
100
AcDbArc
 50
106.1276202132
 51
253.8723797868
  0
ARC
  5
2C8
100
AcDbEntity
  8
05_CURVES
100
AcDbCircle
 62
4
  6
CONTINUOUS
 10
120.190934806
 20
122.7020117205
 40
10.8
100
AcDbArc
 50
286.1276202132
 51
73.8723797868
  0
ARC
  5
2C9
100
AcDbEntity
  8
05_CURVES
100
AcDbCircle
 62
4
  6
CONTINUOUS
 10
120.190934806
 20
122.7020117205
 40
10.8
100
AcDbArc
 50
106.1276202132
 51
253.8723797868
  0
CIRCLE
  5
2CA
100
AcDbEntity
  8
05_CURVES
100
AcDbCircle
 62
4
  6
CONTINUOUS
 10
171.190934806
 20
122.7020117205
 40
9.0
  0
CIRCLE
  5
2CB
100
AcDbEntity
  8
05_CURVES
100
AcDbCircle
 62
4
  6
CONTINUOUS
 10
120.190934806
 20
122.7020117205
 40
9.0
  0
ARC
  5
2CC
100
AcDbEntity
  8
05_CURVES
100
AcDbCircle
 62
4
  6
CONTINUOUS
 10
93.190934806
 20
98.7020117205
 40
3.0
100
AcDbArc
 50
270.0
 51
360.0
  0
ARC
  5
2CD
100
AcDbEntity
  8
05_CURVES
100
AcDbCircle
 62
4
  6
CONTINUOUS
 10
88.990934806
 20
102.9020117205
 40
1.2
100
AcDbArc
 50
270.0
 51
360.0
  0
ARC
  5
2CE
100
AcDbEntity
  8
05_CURVES
100
AcDbCircle
 62
4
  6
CONTINUOUS
 10
171.190934806
 20
152.7020117205
 40
10.8
100
AcDbArc
 50
286.1276202132
 51
73.8723797868
  0
ARC
  5
2CF
100
AcDbEntity
  8
05_CURVES
100
AcDbCircle
 62
4
  6
CONTINUOUS
 10
171.190934806
 20
152.7020117205
 40
10.8
100
AcDbArc
 50
106.1276202132
 51
253.8723797868
  0
ARC
  5
2D0
100
AcDbEntity
  8
05_CURVES
100
AcDbCircle
 62
4
  6
CONTINUOUS
 10
120.190934806
 20
152.7020117205
 40
10.8
100
AcDbArc
 50
286.1276202132
 51
73.8723797868
  0
ARC
  5
2D1
100
AcDbEntity
  8
05_CURVES
100
AcDbCircle
 62
4
  6
CONTINUOUS
 10
120.190934806
 20
152.7020117205
 40
10.8
100
AcDbArc
 50
106.1276202132
 51
253.8723797868
  0
CIRCLE
  5
2D2
100
AcDbEntity
  8
05_CURVES
100
AcDbCircle
 62
4
  6
CONTINUOUS
 10
171.190934806
 20
152.7020117205
 40
9.0
  0
CIRCLE
  5
2D3
100
AcDbEntity
  8
05_CURVES
100
AcDbCircle
 62
4
  6
CONTINUOUS
 10
120.190934806
 20
152.7020117205
 40
9.0
  0
ARC
  5
2D4
100
AcDbEntity
  8
05_CURVES
100
AcDbCircle
 62
4
  6
CONTINUOUS
 10
171.190934806
 20
191.7020117205
 40
3.0
100
AcDbArc
 50
0.0
 51
90.0
  0
ARC
  5
2D5
100
AcDbEntity
  8
05_CURVES
100
AcDbCircle
 62
4
  6
CONTINUOUS
 10
186.190934806
 20
203.7020117205
 40
3.0
100
AcDbArc
 50
0.0
 51
90.0
  0
ARC
  5
2D6
100
AcDbEntity
  8
05_CURVES
100
AcDbCircle
 62
4
  6
CONTINUOUS
 10
81.190934806
 20
203.7020117205
 40
3.0
100
AcDbArc
 50
90.0
 51
180.0
  0
ARC
  5
2D7
100
AcDbEntity
  8
05_CURVES
100
AcDbCircle
 62
4
  6
CONTINUOUS
 10
81.190934806
 20
146.7020117205
 40
3.0
100
AcDbArc
 50
270.0
 51
360.0
  0
ARC
  5
2D8
100
AcDbEntity
  8
05_CURVES
100
AcDbCircle
 62
4
  6
CONTINUOUS
 10
93.190934806
 20
191.7020117205
 40
3.0
100
AcDbArc
 50
90.0
 51
180.0
  0
ARC
  5
2D9
100
AcDbEntity
  8
05_CURVES
100
AcDbCircle
 62
4
  6
CONTINUOUS
 10
166.990934806
 20
187.5020117205
 40
1.2
100
AcDbArc
 50
0.0
 51
90.0
  0
ARC
  5
2DA
100
AcDbEntity
  8
05_CURVES
100
AcDbCircle
 62
4
  6
CONTINUOUS
 10
181.990934806
 20
199.5020117205
 40
1.2
100
AcDbArc
 50
0.0
 51
90.0
  0
ARC
  5
2DB
100
AcDbEntity
  8
05_CURVES
100
AcDbCircle
 62
4
  6
CONTINUOUS
 10
76.990934806
 20
150.9020117205
 40
1.2
100
AcDbArc
 50
270.0
 51
360.0
  0
ARC
  5
2DC
100
AcDbEntity
  8
05_CURVES
100
AcDbCircle
 62
4
  6
CONTINUOUS
 10
97.390934806
 20
187.5020117205
 40
1.2
100
AcDbArc
 50
90.0
 51
180.0
  0
ARC
  5
2DD
100
AcDbEntity
  8
05_CURVES
100
AcDbCircle
 62
4
  6
CONTINUOUS
 10
85.390934806
 20
199.5020117205
 40
1.2
100
AcDbArc
 50
90.0
 51
180.0
  0
ARC
  5
2DE
100
AcDbEntity
  8
05_CURVES
100
AcDbCircle
 62
4
  6
CONTINUOUS
 10
303.190934806
 20
96.243031383
 40
45.0
100
AcDbArc
 50
228.1896851042
 51
311.8103148958
  0
ARC
  5
2DF
100
AcDbEntity
  8
05_CURVES
100
AcDbCircle
 62
4
  6
CONTINUOUS
 10
363.190934806
 20
122.7020117205
 40
10.8
100
AcDbArc
 50
106.1276202132
 51
253.8723797868
  0
ARC
  5
2E0
100
AcDbEntity
  8
05_CURVES
100
AcDbCircle
 62
4
  6
CONTINUOUS
 10
255.190934806
 20
101.7020117205
 40
10.8
100
AcDbArc
 50
24.6243183522
 51
155.3756816478
  0
ARC
  5
2E1
100
AcDbEntity
  8
05_CURVES
100
AcDbCircle
 62
4
  6
CONTINUOUS
 10
363.190934806
 20
122.7020117205
 40
10.8
100
AcDbArc
 50
286.1276202132
 51
73.8723797868
  0
ARC
  5
2E2
100
AcDbEntity
  8
05_CURVES
100
AcDbCircle
 62
4
  6
CONTINUOUS
 10
255.190934806
 20
101.7020117205
 40
10.8
100
AcDbArc
 50
204.6243183522
 51
335.3756816478
  0
ARC
  5
2E3
100
AcDbEntity
  8
05_CURVES
100
AcDbCircle
 62
4
  6
CONTINUOUS
 10
219.190934806
 20
122.7020117205
 40
10.8
100
AcDbArc
 50
106.1276202132
 51
253.8723797868
  0
ARC
  5
2E4
100
AcDbEntity
  8
05_CURVES
100
AcDbCircle
 62
4
  6
CONTINUOUS
 10
219.190934806
 20
122.7020117205
 40
10.8
100
AcDbArc
 50
286.1276202132
 51
73.8723797868
  0
CIRCLE
  5
2E5
100
AcDbEntity
  8
05_CURVES
100
AcDbCircle
 62
4
  6
CONTINUOUS
 10
255.190934806
 20
101.7020117205
 40
9.0
  0
CIRCLE
  5
2E6
100
AcDbEntity
  8
05_CURVES
100
AcDbCircle
 62
4
  6
CONTINUOUS
 10
363.190934806
 20
122.7020117205
 40
9.0
  0
CIRCLE
  5
2E7
100
AcDbEntity
  8
05_CURVES
100
AcDbCircle
 62
4
  6
CONTINUOUS
 10
219.190934806
 20
122.7020117205
 40
9.0
  0
ARC
  5
2E8
100
AcDbEntity
  8
05_CURVES
100
AcDbCircle
 62
4
  6
CONTINUOUS
 10
363.190934806
 20
68.7020117205
 40
3.0
100
AcDbArc
 50
270.0
 51
360.0
  0
ARC
  5
2E9
100
AcDbEntity
  8
05_CURVES
100
AcDbCircle
 62
4
  6
CONTINUOUS
 10
358.990934806
 20
72.9020117205
 40
1.2
100
AcDbArc
 50
270.0
 51
360.0
  0
ARC
  5
2EA
100
AcDbEntity
  8
05_CURVES
100
AcDbCircle
 62
4
  6
CONTINUOUS
 10
303.190934806
 20
149.160992058
 40
45.0
100
AcDbArc
 50
48.1896851042
 51
131.8103148958
  0
ARC
  5
2EB
100
AcDbEntity
  8
05_CURVES
100
AcDbCircle
 62
4
  6
CONTINUOUS
 10
227.2005537493
 20
206.7020117205
 40
15.0
100
AcDbArc
 50
330.0
 51
30.0
  0
ARC
  5
2EC
100
AcDbEntity
  8
05_CURVES
100
AcDbCircle
 62
4
  6
CONTINUOUS
 10
226.1813158628
 20
206.7020117205
 40
15.0
100
AcDbArc
 50
150.0
 51
210.0
  0
ARC
  5
2ED
100
AcDbEntity
  8
05_CURVES
100
AcDbCircle
 62
4
  6
CONTINUOUS
 10
219.190934806
 20
152.7020117205
 40
10.8
100
AcDbArc
 50
106.1276202132
 51
253.8723797868
  0
ARC
  5
2EE
100
AcDbEntity
  8
05_CURVES
100
AcDbCircle
 62
4
  6
CONTINUOUS
 10
219.190934806
 20
152.7020117205
 40
10.8
100
AcDbArc
 50
286.1276202132
 51
73.8723797868
  0
CIRCLE
  5
2EF
100
AcDbEntity
  8
05_CURVES
100
AcDbCircle
 62
4
  6
CONTINUOUS
 10
219.190934806
 20
152.7020117205
 40
9.0
  0
ARC
  5
2F0
100
AcDbEntity
  8
05_CURVES
100
AcDbCircle
 62
4
  6
CONTINUOUS
 10
351.190934806
 20
176.7020117205
 40
3.0
100
AcDbArc
 50
270.0
 51
360.0
  0
ARC
  5
2F1
100
AcDbEntity
  8
05_CURVES
100
AcDbCircle
 62
4
  6
CONTINUOUS
 10
346.990934806
 20
180.9020117205
 40
1.2
100
AcDbArc
 50
270.0
 51
360.0
  0
ENDSEC
  0
SECTION
  2
OBJECTS
  0
DICTIONARY
  5
C
100
AcDbDictionary
280
0
281
1
  3
ACAD_GROUP
350
D
  3
ACAD_MLINESTYLE
350
17
  3
ACAD_LAYOUT
350
1A
  3
ACAD_PLOTSETTINGS
350
19
  3
ACAD_PLOTSTYLENAME
350
E
  0
DICTIONARY
  5
D
102
{ACAD_REACTORS
330
C
102
}
100
AcDbDictionary
280
0
281
1
  0
ACDBDICTIONARYWDFLT
  5
E
102
{ACAD_REACTORS
330
C
102
}
100
AcDbDictionary
281
1
  3
Normal
350
F
100
AcDbDictionaryWithDefault
340
F
  0
DICTIONARY
  5
17
102
{ACAD_REACTORS
330
C
102
}
100
AcDbDictionary
280
0
281
1
  3
Standard
350
18
  0
DICTIONARY
  5
19
102
{ACAD_REACTORS
330
C
102
}
100
AcDbDictionary
281
1
  0
DICTIONARY
  5
1A
102
{ACAD_REACTORS
330
C
102
}
100
AcDbDictionary
281
1
  3
Model
350
2F2
  3
Layout1
350
2F3
  0
ACDBPLACEHOLDER
  5
F
102
{ACAD_REACTORS
330
E
102
}
  0
MLINESTYLE
  5
18
102
{ACAD_REACTORS
330
17
102
}
100
AcDbMlineStyle
  2
STANDARD
 70
0
  3

 62
256
 51
90.0
 52
90.0
 71
2
 49
0.5
 62
256
  6
BYLAYER
 49
-0.5
 62
256
  6
BYLAYER
  0
LAYOUT
  5
2F2
102
{ACAD_REACTORS
330
1A
102
}
100
AcDbPlotSettings
  1

  2
none_device
  4
ISO_A3_(420.00_x_297.00_MM)
  6

 40
0.0
 41
0.0
 42
0.0
 43
0.0
 44
420.0
 45
297.0
 46
0.0
 47
0.0
 48
0.0
 49
0.0
140
0.0
141
0.0
142
1.0
143
1.0
 70
1024
 72
1
 73
0
 74
0
  7

 75
0
147
1.0
148
0.0
149
0.0
100
AcDbLayout
  1
Model
 70
0
 71
0
 10
0.0
 20
0.0
 11
420.0
 21
297.0
 12
0.0
 22
0.0
 32
0.0
 14
0.0
 24
0.0
 34
0.0
 15
0.0
 25
0.0
 35
0.0
146
0.0
 13
0.0
 23
0.0
 33
0.0
 16
1.0
 26
0.0
 36
0.0
 17
0.0
 27
1.0
 37
0.0
 76
0
330
204
345
0
346
0
  0
LAYOUT
  5
2F3
102
{ACAD_REACTORS
330
1A
102
}
100
AcDbPlotSettings
  1

  2
none_device
  4
ISO_A3_(420.00_x_297.00_MM)
  6

 40
0.0
 41
0.0
 42
0.0
 43
0.0
 44
420.0
 45
297.0
 46
0.0
 47
0.0
 48
0.0
 49
0.0
140
0.0
141
0.0
142
1.0
143
1.0
 70
0
 72
1
 73
0
 74
0
  7

 75
0
147
1.0
148
0.0
149
0.0
100
AcDbLayout
  1
Layout1
 70
0
 71
1
 10
0.0
 20
0.0
 11
420.0
 21
297.0
 12
0.0
 22
0.0
 32
0.0
 14
0.0
 24
0.0
 34
0.0
 15
0.0
 25
0.0
 35
0.0
146
0.0
 13
0.0
 23
0.0
 33
0.0
 16
1.0
 26
0.0
 36
0.0
 17
0.0
 27
1.0
 37
0.0
 76
0
330
205
345
0
346
0
  0
ENDSEC
  0
EOF
